<?xml version="1.0" encoding="utf-8"?>
<!-- Generator: Adobe Illustrator 24.1.0, SVG Export Plug-In . SVG Version: 6.00 Build 0)  -->
<svg version="1.1" id="Layer_1" xmlns="http://www.w3.org/2000/svg" xmlns:xlink="http://www.w3.org/1999/xlink" x="0px" y="0px"
	 viewBox="0 0 190 130" style="enable-background:new 0 0 190 130;" xml:space="preserve">
<style type="text/css">
	.st0{fill:#154EA7;}
	.st1{fill:#FFFFFF;}
</style>
<path class="st0" d="M14.5,97.4c0,0,6.1-11.8,16-14.6s13.9-1.2,18.6,3c4.7,4.2,11.8,10.5,9.7,31.6c0,0-21.4,1.1-24.9-19.7
	C33.8,97.7,24.6,107.5,14.5,97.4z"/>
<path class="st1" d="M72.2,64.8c2.3,5.6,4.4,9.5,4.4,9.5l0.3,0.7c3.8,0.1,8.1,0.2,12.9,0.5c-3.8-6-17.1-29.4-14.2-55.6
	C60.8,30.3,49.5,45.4,45.2,62.7c-1.3,5.1-2.3,9.2-3.3,12.4c2.2,0,5.2,0.7,8.9,3.9l2-1.7c0,0,1-5,2.8-11.2
	C59,65.7,66.9,64.8,72.2,64.8z M58.3,58.3c2.1-5.7,4.7-11.4,7.8-14.5c0.6,4.6,1.9,9.3,3.3,13.7C66.8,57.5,61.8,57.7,58.3,58.3z"/>
<path class="st1" d="M101.1,76.4c-1.7-4.2-5-13.4-6.8-25.4c3.5-0.7,8.5-1.2,11.6-1.4c-0.1,8.4,0.6,17.7,2.5,27.6
	c2.4,0.2,4.9,0.3,7.4,0.4c-0.8-7.1-2.6-34.3,12.8-61.7c-3.1-1.2-9.5-3.4-17.1-4.5c-1.4,4.7-3.7,13.3-4.8,24.5
	c-5.8,0.5-10.7,1.1-13.6,1.5C93,29.2,93.7,20.3,96,11c-4.1,0.5-8.1,1.7-11.8,3.6c-1.3,0.7-2.6,1.5-3.9,2.2c-0.8,9.2-1,33.8,15.1,59
	C97.2,76,99.1,76.2,101.1,76.4z"/>
<path class="st1" d="M136,77.4c-0.9-6.7-3-31.7,12.2-49.6c-6.6-4.8-13-8.6-15.8-10.2c-4,7.8-14.2,30.9-12.1,60.1
	C125.4,77.8,130.8,77.7,136,77.4z"/>
<path class="st0" d="M175.1,63.5c-1.9-5.2-4.9-15.3-13.7-24.5c-2.3-2.4-5-4.8-7.8-7.1c-3.6,4.4-14.5,20.2-11.8,45.2
	c9.8-0.7,19-2.1,25.9-4.2c-2.9-1.5-10.5-5.5-11.8-7.2C155.8,65.6,166.8,63.2,175.1,63.5z M154,53.8c-2.3,0-4.1-1.8-4.1-4.1
	c0-2.3,1.8-4.1,4.1-4.1c2.3,0,4.1,1.8,4.1,4.1C158.1,52,156.3,53.8,154,53.8z"/>
<g>
	<path class="st1" d="M66.4,88.5h4.7c3.8,0,5.6,1.9,5.6,6.1v1.6c0,3.9-1.2,6.7-5.8,6.7h-1.8v11.3h-2.7V88.5z M69.2,100.5h1.5
		c2.9,0,3.3-1.8,3.3-4.5v-1.4c0-2.1-0.5-3.9-3.1-3.9h-1.8V100.5z"/>
	<path class="st1" d="M89.3,94.8v12.9c0,4.5-1.9,6.8-5.7,6.8c-4,0-5.4-2.5-5.4-6.7v-13c0-4.4,2-6.7,5.6-6.7
		C87.6,88.1,89.3,90.7,89.3,94.8z M80.9,94.7V108c0,2.9,1,4,2.8,4c1.8,0,2.8-1.1,2.8-4.2V94.7c0-2.7-0.9-4-2.8-4
		C81.8,90.6,80.9,91.9,80.9,94.7z"/>
	<path class="st1" d="M91.4,88.5h2.7v12.4h0c1.1-2.4,3.8-8.6,5.5-12.4h3l-4.9,10.2l5.3,15.5h-3l-4.2-12.6l-1.8,3.6v9h-2.7V88.5z"/>
	<path class="st1" d="M111.9,101.7h-5.8v9.9h6.5l-0.4,2.5h-8.9V88.5h8.8V91h-6.1v8.2h5.8V101.7z"/>
	<path class="st1" d="M117.8,88.5h4.5c4,0,5.5,2.1,5.5,5.6v1.2c0,3.6-1.1,4.7-2.4,5.2c1.4,0.4,2.9,1.7,2.9,5.1v1.9
		c0,4.5-1.5,6.7-5.9,6.7h-4.6V88.5z M122.2,99.3c2.3,0,3-0.9,3-3.9v-1.1c0-2.3-0.9-3.5-3.1-3.5h-1.6v8.5H122.2z M120.5,111.8h1.6
		c2.8,0,3.4-1.3,3.4-4.4v-1.8c0-2.8-1-4-3.5-4h-1.6V111.8z"/>
	<path class="st1" d="M140.9,94.8v12.9c0,4.5-1.9,6.8-5.7,6.8c-4,0-5.4-2.5-5.4-6.7v-13c0-4.4,2-6.7,5.6-6.7
		C139.2,88.1,140.9,90.7,140.9,94.8z M132.5,94.7V108c0,2.9,1,4,2.8,4c1.8,0,2.8-1.1,2.8-4.2V94.7c0-2.7-0.9-4-2.8-4
		S132.5,91.9,132.5,94.7z"/>
	<path class="st1" d="M145.1,114.1l-3.6-25.7h2.9c0.8,6.2,2.1,17,2.3,21.1h0.1c0.4-4.1,2.1-15,3-21.1h2.8c0.9,6.1,2.6,16.3,2.9,20.9
		h0.1c0.3-4.4,1.7-14.7,2.4-20.9h2.8l-3.9,25.7h-3c-0.8-6-2.4-16.2-2.9-20.4h-0.1c-0.5,4.6-2.1,14.5-3,20.4H145.1z"/>
	<path class="st1" d="M162.1,88.5h2.7v23.2h6.5l-0.3,2.5h-8.9V88.5z"/>
</g>
</svg>
